<svg width="45" height="36" viewBox="0 0 45 36" fill="none" xmlns="http://www.w3.org/2000/svg">
<path d="M26.0156 13.7812C26.0156 12.0625 24.7656 11.125 22.6562 11.125H18.75V16.6719H22.0312C24.6094 16.6719 26.0156 15.5781 26.0156 13.7812ZM40.3906 12.7656C39.6094 10.3438 39.5312 7.375 39.6094 5.10938C39.6875 2.6875 37.8125 0.5 35.3125 0.5H9.60938C7.10938 0.5 5.23438 2.76562 5.39062 5.10938C5.46875 7.375 5.3125 10.3438 4.60938 12.7656C3.82812 15.1875 2.57812 16.75 0.546875 16.9062V19.1719C2.57812 19.3281 3.82812 20.8906 4.60938 23.3125C5.3125 25.7344 5.46875 28.7031 5.39062 30.9688C5.23438 33.3125 7.10938 35.5 9.60938 35.5H35.3125C37.8125 35.5 39.6875 33.3125 39.6094 30.9688C39.5312 28.7031 39.6094 25.7344 40.3125 23.3125C41.0938 20.8906 42.3438 19.3281 44.4531 19.1719V16.9062C42.3438 16.75 41.0938 15.1875 40.3906 12.7656ZM23.4375 27.375H15.7812V8.70312H23.3594C26.7969 8.70312 28.9844 10.5781 28.9844 13.3906C28.9844 15.3438 27.5 17.1406 25.5469 17.375V17.5312C28.2031 17.7656 29.9219 19.5625 29.9219 22.0625C29.9219 25.3438 27.5 27.375 23.4375 27.375ZM22.6562 18.8594H18.75V24.9531H22.8125C25.4688 24.9531 26.875 23.9375 26.875 21.9062C26.875 19.875 25.4688 18.8594 22.6562 18.8594Z" fill="#FFFDFD"/>
</svg>
