<svg width="40" height="40" viewBox="0 0 40 40" fill="none" xmlns="http://www.w3.org/2000/svg">
<path d="M39.375 9.0625C39.2969 8.98438 39.2969 8.98438 39.2969 8.90625C39.2188 8.82812 39.2188 8.82812 39.2188 8.82812L39.1406 8.75C39.1406 8.75 39.0625 8.75 39.0625 8.67188L31.5625 4.375C31.4844 4.29688 31.3281 4.29688 31.25 4.29688C31.0938 4.29688 31.0156 4.29688 30.9375 4.375L23.4375 8.67188C23.3594 8.75 23.3594 8.75 23.3594 8.75C23.2812 8.75 23.2812 8.82812 23.2812 8.82812C23.2812 8.82812 23.2031 8.82812 23.2031 8.90625C23.2031 8.98438 23.125 8.98438 23.125 9.0625C23.125 9.14062 23.125 9.21875 23.125 9.21875V17.5L16.7969 21.0938V5C16.7969 4.92188 16.7969 4.92188 16.7969 4.84375V4.76562C16.7969 4.76562 16.7969 4.6875 16.7188 4.6875V4.60938C16.7188 4.60938 16.6406 4.60938 16.6406 4.53125C16.6406 4.53125 16.6406 4.53125 16.5625 4.53125C16.5625 4.45312 16.5625 4.45312 16.4844 4.45312L8.98438 0.15625C8.90625 0.078125 8.82812 0.078125 8.67188 0.078125C8.59375 0.078125 8.4375 0.078125 8.35938 0.15625L0.859375 4.45312C0.859375 4.45312 0.78125 4.45312 0.78125 4.53125H0.703125C0.703125 4.60938 0.703125 4.60938 0.625 4.60938V4.6875C0.625 4.6875 0.625 4.76562 0.546875 4.76562V4.84375C0.546875 4.92188 0.546875 4.92188 0.546875 5V30.7812C0.546875 31.0156 0.625 31.1719 0.859375 31.3281L15.8594 39.9219C15.9375 40 15.9375 40 16.0156 40C16.0938 40 16.1719 40 16.1719 40C16.25 40 16.3281 40 16.3281 40C16.4062 40 16.4062 40 16.4062 40C16.4062 40 16.4844 40 16.4844 39.9219L31.5625 31.3281C31.7188 31.1719 31.875 31.0156 31.875 30.7812V22.5L39.0625 18.3594C39.2969 18.2812 39.375 18.0469 39.375 17.8125V9.21875C39.375 9.21875 39.375 9.14062 39.375 9.0625ZM8.67188 1.40625L14.9219 5L8.67188 8.59375L2.42188 5L8.67188 1.40625ZM15.5469 6.09375V21.7969L11.9531 23.9062L9.29688 25.3906V9.6875L12.9688 7.57812L15.5469 6.09375ZM15.5469 38.3594L1.79688 30.3906V6.09375L4.45312 7.57812L8.04688 9.6875V26.4844V26.5625V26.6406C8.04688 26.7188 8.125 26.7188 8.125 26.7188C8.125 26.7969 8.125 26.7969 8.125 26.7969L8.20312 26.875V26.9531C8.28125 26.9531 8.28125 26.9531 8.28125 26.9531C8.28125 27.0312 8.35938 27.0312 8.35938 27.0312L15.5469 31.0938V38.3594ZM16.1719 30L9.92188 26.4844L16.4844 22.7344L23.75 18.5938L30 22.1875L25.3906 24.7656L16.1719 30ZM30.625 30.3906L16.7969 38.3594V31.0938L27.0312 25.3125L30.625 23.2812V30.3906ZM30.625 21.0938L27.9688 19.5312L24.375 17.5V10.3125L26.9531 11.875L30.625 13.9062V21.0938ZM31.25 12.8906L25 9.21875L31.25 5.625L37.5 9.21875L31.25 12.8906ZM31.875 21.0938V13.9062L35.5469 11.875L38.125 10.3125V17.5L31.875 21.0938Z" fill="#FFFDFD"/>
</svg>
