<svg width="52" height="40" viewBox="0 0 52 40" fill="none" xmlns="http://www.w3.org/2000/svg">
<path d="M24.5156 29.6094C24.5156 29.6875 24.5156 29.6875 24.5156 29.6094V29.6094ZM43.9688 22.8125C42.4062 22.8125 40.8438 23.2031 39.4375 23.9062C39.0469 22.9688 38.5 22.1875 38.4219 21.5625C38.3438 20.8594 38.2656 20.3906 38.3438 19.6094C38.5 18.75 38.9688 17.5 38.9688 17.4219C38.9688 17.3438 38.8906 16.9531 37.875 16.9531C36.8594 16.9531 36 17.1094 35.8438 17.4219C35.6875 17.8906 35.5312 18.3594 35.4531 18.9062C35.2969 19.7656 33.4219 23.0469 32.4062 24.7656C32.0938 24.0625 31.7812 23.5156 31.7031 23.0469C31.625 22.3438 31.5469 21.875 31.625 21.0938C31.7031 20.2344 32.25 19.0625 32.25 18.9062C32.1719 18.8281 32.0938 18.4375 31.0781 18.4375C30.0625 18.4375 29.2031 18.5938 29.125 18.9062C29.0469 19.1406 28.8906 19.7656 28.7344 20.3906C28.5 20.9375 26.0781 26.4062 25.4531 27.8125C25.0625 28.5156 24.8281 29.1406 24.5938 29.5312C24.5938 29.6094 24.5938 29.6094 24.5156 29.6094C24.5938 29.6094 24.5938 29.5312 24.5938 29.6094C24.4375 29.9219 24.2812 30.0781 24.2812 30.0781C24.2031 30.3906 24.0469 30.625 23.9688 30.625C23.8906 30.625 23.8125 29.9219 23.9688 29.0625C24.3594 27.1094 25.2188 24.2188 25.2188 24.1406C25.2188 24.0625 25.375 23.5156 24.6719 23.2812C23.8906 23.0469 23.6562 23.4375 23.5781 23.4375L23.5 23.5938C23.5 23.5938 24.2812 20.3125 22.0156 20.3125C20.5312 20.3125 18.5781 21.875 17.5625 23.2812C16.9375 23.5938 15.6094 24.375 14.2031 25.1562C13.6562 25.3906 13.1094 25.7031 12.5625 26.0156L12.4844 25.9375C9.67188 22.8906 4.51562 20.7812 4.75 16.7969C4.82812 15.3125 5.29688 11.4844 14.6719 6.875C22.3281 3.04688 28.4219 4.0625 29.5156 6.40625C31 9.76562 26.2344 15.9375 18.2656 16.7969C15.2188 17.1094 13.6562 15.9375 13.2656 15.5469C12.7969 15.0781 12.7969 15.0781 12.6406 15.1562C12.3281 15.2344 12.4844 15.7031 12.6406 15.9375C12.875 16.5625 13.8125 17.6562 15.4531 18.2031C16.9375 18.6719 20.5312 18.9062 24.8281 17.2656C29.5938 15.3906 33.3438 10.2344 32.25 5.85938C31.1562 1.48438 23.8906 0 16.9375 2.5C12.7969 3.90625 8.34375 6.25 5.14062 9.21875C1.39062 12.8125 0.765625 15.8594 1 17.1875C1.9375 21.7969 8.26562 24.7656 10.7656 27.0312C10.6875 27.1094 10.5312 27.1094 10.4531 27.1875C9.125 27.8125 4.35938 30.3906 3.10938 33.0469C1.78125 36.0938 3.34375 38.2812 4.35938 38.5156C7.64062 39.4531 11 37.8125 12.7969 35.1562C14.5938 32.4219 14.3594 28.9844 13.5 27.3438C13.5 27.3438 13.5 27.3438 13.5 27.2656C13.8125 27.1094 14.2031 26.875 14.5156 26.7188C15.1406 26.3281 15.7656 26.0156 16.3125 25.7031C16 26.4844 15.7656 27.5 15.6875 28.9844C15.5312 30.7031 16.2344 32.9688 17.1719 33.8281C17.5625 34.2188 18.1094 34.2188 18.3438 34.2188C19.4375 34.2188 19.9062 33.3594 20.4531 32.2656C21.1562 30.9375 21.7031 29.4531 21.7031 29.4531C21.7031 29.4531 21 33.5156 23.0312 33.5156C23.7344 33.5156 24.4375 32.5781 24.8281 32.1094C24.8281 32.1094 24.8281 32.1094 24.8281 32.0312C24.9062 31.875 24.9844 31.7969 24.9844 31.7969C25.2969 31.3281 25.9219 30.1562 26.8594 28.2031C28.1875 25.7031 29.3594 22.6562 29.3594 22.6562C29.5156 23.2812 29.6719 23.9844 29.8281 24.6094C30.0625 25.3906 30.5312 26.1719 30.9219 26.9531C30.6094 27.4219 30.4531 27.6562 30.4531 27.6562C30.2188 27.9688 29.9062 28.2812 29.6719 28.5938C28.6562 29.8438 27.4844 31.1719 27.3281 31.5625C27.0938 32.0312 27.1719 32.3438 27.5625 32.6562C27.7969 32.8125 28.2656 32.8906 28.7344 32.8125C29.6719 32.7344 30.2969 32.5781 30.6094 32.4219C31.1562 32.1875 31.7031 31.9531 32.1719 31.5625C33.1875 30.8594 33.7344 29.8438 33.6562 28.4375C33.6562 27.7344 33.4219 26.9531 33.1094 26.25C33.1875 26.1719 33.2656 26.0156 33.4219 25.8594C34.9062 23.5938 36.1562 21.0938 36.1562 21.0938C36.2344 21.7969 36.3906 22.5 36.625 23.125C36.7812 23.75 37.1719 24.4531 37.4844 25.1562C36.0781 26.3281 35.1406 27.7344 34.8281 28.5938C34.2812 30.2344 34.75 31.0156 35.5312 31.1719C35.9219 31.25 36.4688 31.0938 36.9375 30.9375C37.4844 30.7031 38.1094 30.3906 38.5781 30.0781C39.5938 29.2969 40.5312 28.2812 40.4531 26.9531C40.4531 26.3281 40.2188 25.7031 39.9844 25.1562C41.2344 24.6094 42.875 24.2969 44.9062 24.5312C49.2031 25.0781 50.0625 27.8125 49.9062 28.9062C49.75 30.0781 48.8125 30.7031 48.5 30.8594C48.1875 31.0938 48.1094 31.0938 48.1875 31.25C48.1875 31.4844 48.3438 31.4844 48.5781 31.4062C48.9688 31.3281 50.8438 30.4688 50.9219 28.3594C51.0781 25.7031 48.5 22.8125 43.9688 22.8125ZM10.4531 34.1406C9.04688 35.7031 7.01562 36.3281 6.15625 35.7812C5.21875 35.2344 5.60938 32.9688 7.40625 31.25C8.42188 30.2344 9.82812 29.2969 10.7656 28.75C11 28.5938 11.2344 28.4375 11.625 28.2031C11.7031 28.2031 11.7031 28.125 11.7031 28.125C11.7812 28.125 11.8594 28.0469 11.9375 28.0469C12.6406 30.3906 12.0156 32.5 10.4531 34.1406ZM21 27.0312C20.4531 28.2031 19.4375 31.3281 18.8125 31.1719C18.2656 31.0938 17.875 28.6719 18.6562 26.3281C19.0469 25.1562 19.9062 23.75 20.375 23.2031C21.1562 22.3438 22.0156 22.0312 22.25 22.4219C22.4844 22.8125 21.3125 26.25 21 27.0312ZM29.6719 31.1719C29.4375 31.25 29.2031 31.3281 29.125 31.25C29.0469 31.25 29.2031 31.0938 29.2031 31.0938C29.2031 31.0938 30.2969 29.9219 30.7656 29.375C31 29.0625 31.3125 28.75 31.625 28.2812C31.625 28.3594 31.625 28.3594 31.625 28.4375C31.625 29.8438 30.2188 30.7812 29.6719 31.1719ZM36.3125 29.6094C36.1562 29.5312 36.2344 29.1406 36.7031 28.0469C36.9375 27.5781 37.4062 26.7969 38.1875 26.0938C38.2656 26.3281 38.3438 26.6406 38.3438 26.9531C38.3438 28.6719 37.0938 29.375 36.3125 29.6094Z" fill="#FFFDFD"/>
</svg>
 