<svg
            width="84"
            height="91"
            viewBox="0 0 84 91"
            fill="none"
            xmlns="http://www.w3.org/2000/svg"
          >
            <g filter="url(#filter0_d_134_2)">
              <path
                d="M74.1146 58.3032V26.6968C74.1132 25.3111 73.7474 23.9502 73.0539 22.7505C72.3605 21.5509 71.3638 20.5547 70.1638 19.8619L42.5081 4.05862C41.3069 3.3651 39.9443 3 38.5573 3C37.1703 3 35.8077 3.3651 34.6065 4.05862L6.95081 19.8619C5.7508 20.5547 4.75408 21.5509 4.06064 22.7505C3.3672 23.9502 3.00142 25.3111 3 26.6968V58.3032C3.00142 59.6889 3.3672 61.0498 4.06064 62.2495C4.75408 63.4491 5.7508 64.4453 6.95081 65.1381L34.6065 80.9414C35.8077 81.6349 37.1703 82 38.5573 82C39.9443 82 41.3069 81.6349 42.5081 80.9414L70.1638 65.1381C71.3638 64.4453 72.3605 63.4491 73.0539 62.2495C73.7474 61.0498 74.1132 59.6889 74.1146 58.3032Z"
                fill="#171717"
                stroke="#171717"
                stroke-opacity="0.3"
                stroke-width="2"
                stroke-linecap="round"
                stroke-linejoin="round"
              />
              <path
                d="M23.7656 36.2812C22.8281 38.3125 22.3594 40.6562 22.3594 43C22.3594 49.6406 26.1875 55.2656 31.7344 58L23.7656 36.2812ZM50.1719 42.2188C50.1719 40.1094 49.4688 38.7031 48.8438 37.6094C47.9844 36.2812 47.2031 35.1094 47.2031 33.7031C47.2031 32.2188 48.375 30.7344 49.9375 30.7344C50.0156 30.7344 50.0938 30.7344 50.1719 30.8125C47.2031 28.0781 43.2969 26.4375 39 26.4375C33.1406 26.4375 28.0625 29.4062 25.0938 33.9375C25.4844 33.9375 25.7969 33.9375 26.1094 33.9375C27.9062 33.9375 30.5625 33.7031 30.5625 33.7031C31.5 33.625 31.5781 34.9531 30.7188 35.1094C30.7188 35.1094 29.7812 35.1875 28.7656 35.2656L34.8594 53.2344L38.4531 42.2969L35.875 35.2656C35.0156 35.1875 34.1562 35.1094 34.1562 35.1094C33.2188 35.0312 33.375 33.625 34.2344 33.7031C34.2344 33.7031 36.9688 33.9375 38.6094 33.9375C40.3281 33.9375 43.0625 33.7031 43.0625 33.7031C43.9219 33.625 44.0781 34.9531 43.1406 35.1094C43.1406 35.1094 42.2812 35.1875 41.2656 35.2656L47.2812 53.0781L48.9219 47.5312C49.625 45.2656 50.1719 43.625 50.1719 42.2188ZM39.2344 44.4844L34.2344 59.0156C35.7969 59.4062 37.3594 59.6406 39 59.6406C40.875 59.6406 42.75 59.3281 44.4688 58.7031C44.4688 58.625 44.3906 58.5469 44.3906 58.4688L39.2344 44.4844ZM53.5312 35.0312C53.6094 35.5781 53.6875 36.125 53.6875 36.75C53.6875 38.4688 53.375 40.3438 52.3594 42.6875L47.2812 57.375C52.2812 54.4844 55.5625 49.1719 55.5625 43C55.5625 40.1094 54.8594 37.4531 53.5312 35.0312ZM58.375 43C58.375 32.375 49.625 23.625 39 23.625C28.2969 23.625 19.625 32.375 19.625 43C19.625 53.7031 28.2969 62.375 39 62.375C49.625 62.375 58.375 53.7031 58.375 43ZM57.4375 43C57.4375 53.2344 49.1562 61.5156 39 61.5156C28.7656 61.5156 20.4844 53.2344 20.4844 43C20.4844 32.8438 28.7656 24.5625 39 24.5625C49.1562 24.5625 57.4375 32.8438 57.4375 43Z"
                fill="#00769D"
              />
            </g>
            <defs>
              <filter
                id="filter0_d_134_2"
                x="0"
                y="0"
                width="83.1146"
                height="91"
                filterUnits="userSpaceOnUse"
                color-interpolation-filters="sRGB"
              >
                <feFlood flood-opacity="0" result="BackgroundImageFix" />
                <feColorMatrix
                  in="SourceAlpha"
                  type="matrix"
                  values="0 0 0 0 0 0 0 0 0 0 0 0 0 0 0 0 0 0 127 0"
                  result="hardAlpha"
                />
                <feOffset dx="3" dy="3" />
                <feGaussianBlur stdDeviation="2.5" />
                <feComposite in2="hardAlpha" operator="out" />
                <feColorMatrix
                  type="matrix"
                  values="0 0 0 0 0 0 0 0 0 0 0 0 0 0 0 0 0 0 0.25 0"
                />
                <feBlend
                  mode="normal"
                  in2="BackgroundImageFix"
                  result="effect1_dropShadow_134_2"
                />
                <feBlend
                  mode="normal"
                  in="SourceGraphic"
                  in2="effect1_dropShadow_134_2"
                  result="shape"
                />
              </filter>
            </defs>
          </svg>