<svg width="26" height="35" viewBox="0 0 26 35" fill="none" xmlns="http://www.w3.org/2000/svg">
<path d="M18.8703 0.578125C18.8703 0.578125 21.7602 8.00068 9.37525 12.9864C2.64558 15.6947 -2.5232 22.6365 3.64831 33.3597C4.15942 28.5666 6.35099 17.9983 15.7746 15.5868C15.7746 15.5868 7.00368 19.0303 6.22888 34.6175C10.7358 35.2818 21.3057 35.7282 24.4439 26.0976C28.5879 13.3733 18.8703 0.578125 18.8703 0.578125Z" fill="#8DCE97"/>
<path d="M6.23297 34.5526C15.8007 30.5435 22.7624 21.1517 23.7232 9.93999C21.7672 4.40045 18.8704 0.578125 18.8704 0.578125C18.8704 0.578125 21.7602 8.00068 9.37525 12.9864C2.64558 15.6947 -2.5232 22.6365 3.64831 33.3597C4.15942 28.5666 6.35099 17.9983 15.7746 15.5868C15.7741 15.5868 7.02924 19.0218 6.23297 34.5526Z" fill="#8DCE97"/>
<path d="M2.69341 13.2338C3.1874 13.2338 3.58785 12.8133 3.58785 12.2946C3.58785 11.776 3.1874 11.3556 2.69341 11.3556C2.19943 11.3556 1.79897 11.776 1.79897 12.2946C1.79897 12.8133 2.19943 13.2338 2.69341 13.2338Z" fill="#8DCE97"/>
<path d="M5.50443 12.0263C5.85726 12.0263 6.14329 11.726 6.14329 11.3556C6.14329 10.9851 5.85726 10.6848 5.50443 10.6848C5.1516 10.6848 4.86557 10.9851 4.86557 11.3556C4.86557 11.726 5.1516 12.0263 5.50443 12.0263Z" fill="#8DCE97"/>
<path d="M4.92943 6.66009C5.81152 6.66009 6.52659 5.90931 6.52659 4.98318C6.52659 4.05705 5.81152 3.30627 4.92943 3.30627C4.04735 3.30627 3.33228 4.05705 3.33228 4.98318C3.33228 5.90931 4.04735 6.66009 4.92943 6.66009Z" fill="#8DCE97"/>
<path d="M9.84874 9.34323C10.1311 9.34323 10.3599 9.10299 10.3599 8.80665C10.3599 8.51027 10.1311 8.27002 9.84874 8.27002C9.5665 8.27002 9.33768 8.51027 9.33768 8.80665C9.33768 9.10299 9.5665 9.34323 9.84874 9.34323Z" fill="#8DCE97"/>
<path d="M14.13 7.33091C14.9415 7.33091 15.5994 6.64019 15.5994 5.78814C15.5994 4.93609 14.9415 4.24536 14.13 4.24536C13.3185 4.24536 12.6606 4.93609 12.6606 5.78814C12.6606 6.64019 13.3185 7.33091 14.13 7.33091Z" fill="#8DCE97"/>
</svg>
