<svg width="56" height="47" viewBox="0 0 56 47" fill="none" xmlns="http://www.w3.org/2000/svg">
<path d="M52.9412 15.5513C54.4966 18.2636 55.4535 21.0046 55.812 23.7743C56.1704 26.544 56.0164 29.193 55.3497 31.7212C54.6708 34.228 53.5084 36.54 51.8625 38.6574C50.2382 40.7625 48.1995 42.5188 45.7462 43.9265C43.3145 45.3219 40.7635 46.1849 38.0931 46.5156C35.4442 46.834 32.8498 46.649 30.31 45.9607C27.7918 45.2599 25.4342 44.0665 23.2374 42.3802C21.0283 40.6725 19.1584 38.484 17.6277 35.8147L0 5.07512L8.84452 0L18.1028 16.1447C18.2305 15.2703 18.4922 14.405 18.8877 13.5486C19.3048 12.6799 19.8142 11.8725 20.4161 11.1266C21.0395 10.3684 21.7277 9.67313 22.4805 9.04087C23.221 8.38707 23.9894 7.83174 24.7856 7.37485C27.2388 5.96716 29.796 5.11489 32.4573 4.81804C35.1277 4.48733 37.7282 4.68308 40.2588 5.40532C42.7894 6.12755 45.1593 7.34255 47.3685 9.05031C49.5653 10.7365 51.4228 12.9035 52.9412 15.5513ZM44.0644 20.6449C43.299 19.3103 42.3525 18.2083 41.2249 17.3391C40.1064 16.436 38.9083 15.7931 37.6306 15.4105C36.353 15.0278 35.0404 14.9084 33.6928 15.0523C32.3668 15.1838 31.1012 15.5952 29.8961 16.2867C28.691 16.9782 27.7048 17.9018 26.9375 19.0574C26.1793 20.179 25.6551 21.4096 25.365 22.7491C25.0626 24.067 25.0125 25.4261 25.2148 26.8263C25.4048 28.205 25.8455 29.4971 26.5368 30.7025C27.3021 32.0372 28.2379 33.1453 29.344 34.0269C30.4502 34.9084 31.6421 35.5406 32.9197 35.9232C34.1974 36.3058 35.5054 36.4422 36.8438 36.3322C38.1913 36.1884 39.4676 35.7707 40.6727 35.0792C41.8778 34.3877 42.8718 33.5027 43.6547 32.424C44.4467 31.3115 45.0002 30.107 45.315 28.8106C45.6298 27.5142 45.686 26.1659 45.4836 24.7657C45.3028 23.3531 44.8297 21.9795 44.0644 20.6449Z" fill="url(#paint0_linear_127_127)"/>
<defs>
<linearGradient id="paint0_linear_127_127" x1="28" y1="0" x2="28" y2="46.6667" gradientUnits="userSpaceOnUse">
<stop offset="0.078125" stop-color="#EE0D0D" stop-opacity="0.77"/>
<stop offset="0.260417" stop-color="#F07B0E" stop-opacity="0.9"/>
<stop offset="0.421875" stop-color="#BDB60F" stop-opacity="0.75"/>
<stop offset="0.588542" stop-color="#29A715" stop-opacity="0.79"/>
<stop offset="0.75" stop-color="#0911E4" stop-opacity="0.67"/>
<stop offset="0.921875" stop-color="#7309F9" stop-opacity="0.81"/>
</linearGradient>
</defs>
</svg>
