<svg width="42" height="35" viewBox="0 0 42 35" fill="none" xmlns="http://www.w3.org/2000/svg">
<path d="M39.7059 11.6635C40.8724 13.6977 41.5901 15.7535 41.859 17.8307C42.1278 19.908 42.0123 21.8948 41.5123 23.7909C41.0031 25.671 40.1313 27.405 38.8969 28.9931C37.6787 30.5719 36.1496 31.8891 34.3097 32.9449C32.4859 33.9914 30.5726 34.6387 28.5698 34.8867C26.5831 35.1255 24.6374 34.9868 22.7325 34.4705C20.8438 33.945 19.0757 33.0499 17.4281 31.7852C15.7712 30.5044 14.3688 28.863 13.2208 26.861L0 3.80634L6.63339 0L13.5771 12.1086C13.6729 11.4528 13.8691 10.8037 14.1658 10.1614C14.4786 9.5099 14.8607 8.90441 15.3121 8.34498C15.7796 7.77629 16.2957 7.25485 16.8604 6.78065C17.4158 6.29031 17.992 5.8738 18.5892 5.53114C20.4291 4.47537 22.347 3.83616 24.343 3.61353C26.3458 3.3655 28.2962 3.51231 30.1941 4.05399C32.0921 4.59566 33.8695 5.50691 35.5263 6.78773C37.1739 8.05241 38.5671 9.67765 39.7059 11.6635ZM33.0483 15.4837C32.4743 14.4827 31.7644 13.6563 30.9186 13.0043C30.0798 12.327 29.1812 11.8448 28.223 11.5579C27.2647 11.2709 26.2803 11.1813 25.2696 11.2892C24.2751 11.3878 23.3259 11.6964 22.4221 12.2151C21.5183 12.7337 20.7786 13.4263 20.2031 14.293C19.6344 15.1343 19.2413 16.0572 19.0238 17.0618C18.7969 18.0503 18.7594 19.0696 18.9111 20.1197C19.0536 21.1537 19.3841 22.1228 19.9026 23.0269C20.4766 24.0279 21.1784 24.859 22.008 25.5201C22.8376 26.1813 23.7316 26.6554 24.6898 26.9424C25.648 27.2294 26.629 27.3316 27.6328 27.2492C28.6435 27.1413 29.6007 26.828 30.5045 26.3094C31.4084 25.7908 32.1539 25.127 32.741 24.318C33.3351 23.4836 33.7501 22.5803 33.9862 21.608C34.2223 20.6357 34.2645 19.6244 34.1127 18.5743C33.9771 17.5149 33.6223 16.4847 33.0483 15.4837Z" fill="url(#paint0_linear_46_168)"/>
<defs>
<linearGradient id="paint0_linear_46_168" x1="21" y1="0" x2="21" y2="35" gradientUnits="userSpaceOnUse">
<stop offset="0.078125" stop-color="#EE0D0D" stop-opacity="0.77"/>
<stop offset="0.260417" stop-color="#F07B0E" stop-opacity="0.9"/>
<stop offset="0.421875" stop-color="#BDB60F" stop-opacity="0.75"/>
<stop offset="0.588542" stop-color="#29A715" stop-opacity="0.79"/>
<stop offset="0.75" stop-color="#0911E4" stop-opacity="0.67"/>
<stop offset="0.921875" stop-color="#7309F9" stop-opacity="0.81"/>
</linearGradient>
</defs>
</svg>
